# File created by Blade
# Date/Time:  Tue Jan 27 20:02:37 2015
# Frame Rate: 120.000 fps
#------------------------------------------------------
:FULLY-SPECIFIED
:DEGREES
3430
root 6.559046 33.405718 3.214370 26.858235 -20.640417 -19.547369
Spine 1.024221 18.967929 -2.993023
Head -17.605173 0.089958 4.721468
LeftShoulder -13.230775 -2.898373 29.390960
LeftArm -9.873154 -28.907878 -75.515508
LeftForeArm -48.942510 -0.000000 133.283556
LeftHand 8.530924 -0.000000 -43.355496
LeftHandThumb1 -26.253704 0.000000 33.147579
RightShoulder -9.531876 -5.098867 -27.216674
RightArm 33.920952 -49.675766 75.957328
RightForeArm -16.710700 0.000000 18.747805
RightHand 16.873742 -0.000000 12.138828
RightHandThumb1 -24.326973 -0.000000 -32.862282
LeftUpLeg -13.013945 14.847154 5.308594
LeftLeg -6.679171 -0.000000 0.000000
LeftFoot -18.216356 25.691289 -17.833419
LeftToeBase 20.456629 -0.000000 -0.000000
RightUpLeg 26.333840 -42.933113 -39.152556
RightLeg 87.601315 -0.000000 -0.000000
RightFoot 29.920001 -25.000244 31.378609
RightToeBase 16.084699 -0.000000 -0.000000
3431
root 6.539916 33.407646 3.221721 26.884114 -20.569873 -19.566773
Spine 1.008037 18.925706 -2.975942
Head -17.661357 0.108214 4.800575
LeftShoulder -13.203838 -3.015646 29.421489
LeftArm -10.029579 -28.958182 -75.330561
LeftForeArm -48.972684 -0.000000 133.244693
LeftHand 8.539526 -0.000000 -43.332369
LeftHandThumb1 -26.253704 0.000000 33.147579
RightShoulder -9.511577 -5.105243 -27.199840
RightArm 33.824251 -49.675197 76.082965
RightForeArm -16.698551 0.000000 18.673851
RightHand 16.840451 0.000000 12.144574
RightHandThumb1 -24.326973 -0.000000 -32.862282
LeftUpLeg -13.017272 14.872013 5.348837
LeftLeg -6.712206 -0.000000 0.000000
LeftFoot -18.141367 25.684684 -17.726511
LeftToeBase 20.485971 -0.000000 -0.000000
RightUpLeg 26.353936 -43.049406 -39.253230
RightLeg 87.496650 -0.000000 -0.000000
RightFoot 30.119867 -24.964935 31.163423
RightToeBase 15.787926 -0.000000 -0.000000
3432
root 6.522961 33.409895 3.227743 26.918253 -20.545529 -19.571095
Spine 0.978613 18.961719 -3.015823
Head -17.726376 0.068760 4.904942
LeftShoulder -13.180620 -3.032727 29.431397
LeftArm -9.989603 -29.033631 -75.269781
LeftForeArm -48.903551 -0.000000 133.220383
LeftHand 8.580343 -0.000000 -43.327020
LeftHandThumb1 -26.253704 0.000000 33.147579
RightShoulder -9.522100 -5.113276 -27.181747
RightArm 33.722403 -49.694299 76.213365
RightForeArm -16.701826 -0.000000 18.616235
RightHand 16.855242 -0.000000 12.177379
RightHandThumb1 -24.326973 -0.000000 -32.862282
LeftUpLeg -13.018207 14.899036 5.369674
LeftLeg -6.764042 -0.000000 0.000000
LeftFoot -18.089147 25.683690 -17.698327
LeftToeBase 20.202930 -0.000000 -0.000000
RightUpLeg 26.337539 -43.137924 -39.295479
RightLeg 87.421662 -0.000000 -0.000000
RightFoot 29.836984 -25.031899 31.419104
RightToeBase 16.473546 -0.000000 -0.000000
3433
root 6.502775 33.412925 3.234936 26.953899 -20.511014 -19.600746
Spine 0.952990 18.991287 -3.029657
Head -17.778224 0.073558 4.995763
LeftShoulder -13.157802 -3.062028 29.435005
LeftArm -10.003631 -29.159259 -75.200272
LeftForeArm -48.854436 -0.000000 133.227276
LeftHand 8.560637 -0.000000 -43.310877
LeftHandThumb1 -26.253704 0.000000 33.147579
RightShoulder -9.525368 -5.150144 -27.165509
RightArm 33.682485 -49.725742 76.314749
RightForeArm -16.729174 -0.000000 18.552051
RightHand 16.775733 -0.000000 12.184376
RightHandThumb1 -24.326973 -0.000000 -32.862282
LeftUpLeg -13.013286 14.904427 5.423887
LeftLeg -6.797984 -0.000000 0.000000
LeftFoot -18.051838 25.739736 -17.650199
LeftToeBase 20.100296 -0.000000 -0.000000
RightUpLeg 26.365646 -43.228564 -39.381688
RightLeg 87.343790 -0.000000 -0.000000
RightFoot 29.918496 -24.995248 31.387410
RightToeBase 16.083352 -0.000000 -0.000000
